<svg xmlns="http://www.w3.org/2000/svg" width="24" height="24" viewBox="0 -1 22 28" fill="currentColor" fill-rule="evenodd"><path d="M4.125 20.149c-2.69 5.959 3.036 7.453 7.26 3.966 1.24 3.91 5.898.993 7.569-2.036 3.682-6.678 2.195-13.49 1.813-14.895-2.617-9.582-15.699-9.592-17.95.049-.526 1.687-.535 3.606-.833 5.598-.15 1.005-.256 1.646-.645 2.703-.223.607-.53 1.147-1.014 2.056-.75 1.412-.434 4.138 3.434 2.724v.001ZM11.895 11.332c-1.073 0-1.234-1.283-1.234-2.048 0-.69.124-1.239.358-1.586a1 1 0 0 1 .876-.462c.375 0 .697.158.924.47.259.354.395.9.395 1.578 0 1.283-.493 2.048-1.319 2.048Zm4.416 0c-1.073 0-1.234-1.283-1.234-2.048 0-.69.124-1.239.358-1.586a1 1 0 0 1 .876-.462c.375 0 .697.158.924.47.259.354.396.9.396 1.578 0 1.283-.494 2.048-1.32 2.048Z"/></svg>
